<svg width="160" height="160" viewBox="0 0 160 160" fill="none" xmlns="http://www.w3.org/2000/svg">
  <circle cx="80" cy="80" r="80" fill="#1B1E3B"/>
  <circle cx="80" cy="82" r="60" fill="#262B56"/>
  <path d="M36 133C42 110 60 98 80 98C100 98 118 110 124 133" fill="#8A67F2"/>
  <circle cx="80" cy="66" r="28" fill="#F5C9AA"/>
  <path d="M52 60C52 41 64 30 80 30C96 30 108 41 108 60V65H52V60Z" fill="#B84EC9"/>
  <path d="M57 58C62 43 70 36 80 36C90 36 98 43 103 58" stroke="#F19CFF" stroke-width="6" stroke-linecap="round"/>
  <circle cx="69" cy="68" r="3" fill="#203050"/>
  <circle cx="91" cy="68" r="3" fill="#203050"/>
  <path d="M73 80C77 84 83 84 87 80" stroke="#BF735B" stroke-width="4" stroke-linecap="round"/>
  <path d="M60 132C64 115 70 106 80 106C90 106 96 115 100 132" stroke="#F7F3FF" stroke-width="10" stroke-linecap="round"/>
</svg>
