<svg width="160" height="160" viewBox="0 0 160 160" fill="none" xmlns="http://www.w3.org/2000/svg">
  <circle cx="80" cy="80" r="80" fill="#15243B"/>
  <circle cx="80" cy="82" r="60" fill="#203454"/>
  <path d="M36 132C44 111 60 101 80 101C100 101 116 111 124 132" fill="#F3A646"/>
  <circle cx="80" cy="65" r="27" fill="#F1C5A7"/>
  <path d="M51 59C51 42 63 30 80 30C97 30 109 42 109 59V66H51V59Z" fill="#2B3C2B"/>
  <path d="M55 56C63 37 75 31 89 31C96 31 102 36 106 44" stroke="#95D16C" stroke-width="6" stroke-linecap="round"/>
  <circle cx="70" cy="66" r="3" fill="#1E2746"/>
  <circle cx="90" cy="66" r="3" fill="#1E2746"/>
  <path d="M74 78C77 81 83 81 86 78" stroke="#C0775E" stroke-width="4" stroke-linecap="round"/>
  <path d="M58 132C62 117 70 109 80 109C90 109 98 117 102 132" stroke="#FFF5E8" stroke-width="10" stroke-linecap="round"/>
</svg>
